<svg width="513" height="610" viewBox="0 0 513 610" fill="none" xmlns="http://www.w3.org/2000/svg">
<path d="M413.45 265.81L413.42 267.24C406.27 274.8 401.71 285.94 390.46 277.3C366.7 259.06 381 220.42 407.02 212.89C456.38 198.62 481.83 254.37 455.83 292.67C436.09 321.74 398.76 335.02 364.69 327.05C342.1 321.76 332.07 303.25 315.05 289.77C309.19 302.55 320.2 312.23 328.03 320.74C349.23 343.79 376.87 372.24 399.82 393.31C416.32 408.45 444.85 407.92 447.32 382.06C449.66 357.54 414.64 354.39 416.45 380.68C389.07 375.43 395.32 343.24 419.24 337.01C463.89 325.38 489.12 377.19 463.23 410.97C442.42 438.12 405.53 436.18 381.95 413.67L285.07 317.76L275.6 327.23L362.01 413.63C385.13 445.89 369.18 488.42 331.48 500.01C296.42 510.79 260.5 479.9 268.89 443.41C275.29 415.57 307.99 410.76 315.55 439.61C283.2 436.64 292.79 477.42 319.9 475.52C342.69 473.92 352.48 445.14 338.04 428.62L256.97 348.78L176.17 427.62C158.51 448 173.14 479.92 201.72 474.14C222 470.04 225.18 435.87 198.66 439.61C200.71 417.05 229.21 413.3 240.15 432.59C261.38 470 222.07 510.12 182.46 500.27C140.77 489.9 129.28 443.83 153.67 411.12L237.17 327.72C238.43 325.28 230.72 319.85 228.98 317.81L130.73 414.16C91.8402 449.1 35.4002 425.95 40.8202 371.2C43.5002 344.07 73.8302 328.43 98.2802 338.7C119.58 347.64 121.49 375.81 96.7602 380.68C98.0902 353.96 63.3402 356.81 66.8702 384.1C69.3302 403.09 91.1002 408.02 106.07 399.49C132.32 374.19 159.83 349.08 184.7 322.27C193.25 313.05 204.5 303.75 198.17 289.79C182.23 302.44 171.59 320.3 150.92 326.46C102.75 340.81 41.1902 303.81 48.0602 249.58C52.3502 215.71 95.3002 197.8 121.25 220.83C136.75 234.58 141.17 263.3 123.23 276.79C111.48 285.63 107.28 275.73 99.8602 267.29C107.53 262.36 109.1 257.5 107.69 248.38C105.74 235.8 86.4002 234.39 78.7902 244.32C66.8402 259.91 78.3002 279.17 91.2502 289.8C112.65 307.36 150.29 308.01 166.11 282.7C182.42 256.61 159.19 243.36 150.23 221.83C135.53 186.51 141.17 145.69 163.29 115.04C181.47 89.85 223.45 58.94 253.82 51.68C259.51 50.32 273.11 56.57 278.95 59.15C341.78 86.87 393.21 150.65 363 221.83C353.57 244.05 328.75 259.12 349.11 285.7C371.34 314.71 425.29 303.43 437.49 270.35C443.52 253.98 434.67 233.17 414.92 238.78C402.39 242.34 401.76 261.15 413.46 265.82L413.45 265.81ZM233.63 229.81C217.68 212.05 196.67 199 174.69 189.86C176.11 203.19 177.76 216.27 189.34 224.65C202.4 234.09 218.63 232.33 233.62 229.81H233.63ZM338.52 189.87C315.94 198.51 295.63 212.79 278.58 229.82C293.08 231.92 308.2 234.02 321.48 226.27C334.97 218.4 336.73 204.03 338.52 189.87Z" fill="#00C49A"/>
<path d="M296.57 528.53C304.01 527.86 310.56 529.2 314.99 535.59C315.7 536.62 318.55 542.36 318.55 543.02V566.5L385.16 499.74C387.6 498.24 390.12 496.09 393.04 495.64C405.64 493.67 423.45 496.5 436.92 495.57C495.54 491.49 484.15 433.11 484.34 391.14C484.8 291.1 483.85 189.94 484.34 89.43C484.36 84.51 485.63 80.03 485.37 74.5C484.35 52.66 470.33 35.46 449.42 29.53C323.35 26.07 196.61 29.01 70.2902 28.05C51.8502 30.93 35.3202 43.77 30.3102 62C26.8102 190.76 29.8602 320.17 28.7702 449.18C30.4802 475.49 49.1502 493.61 75.2802 495.57C88.4802 496.56 112.55 493.1 123.75 496.05C134.16 498.79 146.73 517.1 155.69 523.56H68.2802C58.0502 523.56 37.3402 513.16 29.3503 506.55C-8.09975 475.55 1.59024 424.63 1.75024 382.1C2.02024 308.1 2.08024 232.96 1.90024 158.37C1.84024 133.3 -0.109755 106.62 0.830245 81.44C2.49025 36.73 25.8802 6.37 71.3002 0.06L440.97 0C479.04 2.46 508.39 31.83 512.34 69.5L512.4 448.16C510.44 479.31 491.06 509.32 460.95 519.59C441.21 526.32 420.86 522.15 400.49 524.06L318.49 605.9C312.32 610.39 304.22 610.73 299.74 603.8C298.97 602.61 296.58 596.94 296.58 595.97V528.54L296.57 528.53Z" fill="#017C66"/>
</svg>
